Coordinates
version=1
nRows=11
nColumns=36
inDegrees=yes

Units are S.I. units (second, meters, Newtons, ...)
If the header above contains a line with 'inDegrees', this indicates whether rotational values are in degrees (yes) or radians (no).

endheader
time	pelvis_tilt	pelvis_list	pelvis_rotation	pelvis_tx	pelvis_ty	pelvis_tz	hip_flexion_r	hip_adduction_r	hip_rotation_r	knee_angle_r	knee_angle_r_beta	ankle_angle_r	subtalar_angle_r	mtp_angle_r	hip_flexion_l	hip_adduction_l	hip_rotation_l	knee_angle_l	knee_angle_l_beta	ankle_angle_l	subtalar_angle_l	mtp_angle_l	lumbar_extension	lumbar_bending	lumbar_rotation	arm_flex_r	arm_add_r	arm_rot_r	elbow_flex_r	pro_sup_r	arm_flex_l	arm_add_l	arm_rot_l	elbow_flex_l	pro_sup_l
      0.00000000	      2.10938015	      0.10170019	      3.65184755	      0.70557579	      1.03948947	      0.84817530	     19.72891050	     -3.78118373	     -4.18530254	     19.66894579	      0.34328786	      2.21891014	     -5.46907752	     -6.57246725	     -3.76397266	     -0.30447271	     -1.01407824	     11.99873252	      0.20941739	     17.02836538	     -2.06977571	     -6.57246725	    -16.43177622	      2.54474917	     -3.37806542	      0.43844851	     -9.57069457	    -12.87887176	     22.22157842	     85.22585158	     21.28076614	    -12.67978847	      9.88627135	     31.35817053	     86.81774647
      0.01666670	      1.98651145	      0.45191135	      3.31838786	      0.70554715	      1.03116525	      0.84905074	     20.78308013	     -3.82192529	     -4.86670730	     17.12995642	      0.29897414	      2.88895744	     -4.42819904	     -6.58749282	     -4.08647451	      0.22748288	     -0.33666909	     13.40367580	      0.23393827	     18.08339926	     -3.50399783	     -6.58749282	    -16.76289065	      2.07682147	     -2.69537149	      0.30893153	     -9.11993916	    -14.17014699	     21.37439542	     84.69414933	     22.06932959	    -12.62769653	      9.32800825	     33.89554847	     85.46985294
      0.03333330	      1.13786605	      1.43837772	      3.17796838	      0.70689363	      1.02842361	      0.85140834	     21.86891381	     -4.65104330	     -4.83648669	     13.05042402	      0.22777287	      2.96442908	     -3.29908220	     -6.60682706	     -4.12829832	      1.16990169	     -0.44008991	     13.36529885	      0.23326847	     19.45739756	     -2.15699699	     -6.60682706	    -16.04699403	      1.41692401	     -3.06958504	      0.05907208	     -8.75221859	    -15.22224525	     20.74359783	     83.93458625	     22.37075770	    -12.89454610	      8.64587277	     35.51988030	     84.08709919
      0.05000000	      0.91664301	      1.87076420	      3.27376017	      0.70720393	      1.02964211	      0.85407181	     22.52428145	     -5.03589604	     -4.93502765	     10.65390413	      0.18594571	      5.05755347	     -1.22840399	     -6.62762433	     -4.68857957	      1.49937527	     -0.70666132	     13.42325833	      0.23428005	     20.43941560	     -1.47979340	     -6.62762433	    -16.12579867	      1.38764910	     -3.36833386	      0.06887998	     -8.58696813	    -15.49264438	     20.27665170	     82.39631522	     22.70663513	    -12.91184236	      8.23841718	     36.95971826	     82.14655105
      0.06666670	      0.79208636	      2.04745242	      2.86185739	      0.70607842	      1.03107480	      0.85697189	     22.97004661	     -4.88460218	     -4.36014195	      8.99719164	      0.15703062	      6.35107382	      0.00761102	     -6.73199771	     -5.42767636	      1.51770576	     -1.87283138	     13.58211573	      0.23705264	     21.07081769	     -0.68336059	     -6.73199771	    -16.15862845	      1.49600583	     -3.69252986	      0.49561202	     -8.43031476	    -15.15322896	     19.64049976	     81.06156532	     22.46543528	    -13.07503089	      7.10344600	     38.27825851	     79.94404166
      0.08333330	      0.81021467	      1.99684216	      2.33212133	      0.70470128	      1.03173399	      0.85861953	     23.09985031	     -4.46803548	     -3.68277950	      8.18821953	      0.14291139	      6.59019632	      0.09982330	     -6.76198314	     -6.32679646	      1.34158064	     -2.73976684	     13.74901277	      0.23996554	     21.17046780	     -0.32173520	     -6.76198314	    -16.24134934	      1.74429691	     -3.39382649	      0.89094097	     -8.44868305	    -15.05152674	     18.91694577	     81.00158741	     22.38421453	    -12.84404312	      6.34278297	     38.67983312	     79.36088618
      0.10000000	      0.55097386	      1.76800074	      1.90494855	      0.70455131	      1.03115607	      0.85910275	     23.29094430	     -3.93089880	     -3.48260614	      8.09470579	      0.14127927	      5.86222422	      0.09607553	     -6.86961365	     -6.86080002	      0.97292857	     -3.34867899	     14.25246956	      0.24875252	     21.06278042	      0.03426560	     -6.86961365	    -15.74186329	      2.17702627	     -3.98822728	      1.75559228	     -8.67681821	    -13.68625163	     17.85778478	     81.03375864	     21.26107023	    -12.75442927	      4.18948813	     39.57035957	     77.38657722
      0.11666670	      0.10595635	      1.53377224	      1.41052028	      0.70578274	      1.02873966	      0.85923536	     23.55352355	     -3.38042365	     -3.45200394	      8.66968521	      0.15131455	      4.21657639	     -0.23221742	     -6.90571058	     -7.10115639	      0.60811261	     -4.00669759	     15.24485633	      0.26607294	     20.94109290	      0.62934111	     -6.90571058	    -14.79605774	      2.52329864	     -3.85299785	      2.26802744	     -8.98705015	    -12.76076514	     16.68610975	     79.93441672	     20.42163032	    -12.44011744	      3.50828556	     39.50132747	     75.79299064
      0.13333330	     -0.46865732	      1.16072370	      0.96185170	      0.70844911	      1.02539864	      0.85944611	     23.85227569	     -2.73987519	     -3.71753807	      9.67801876	      0.16891329	      2.09708774	     -0.77761091	     -6.94086037	     -7.07777453	      0.10068480	     -4.56054944	     16.81178531	      0.29342101	     20.42651449	      1.04935626	     -6.94086037	    -13.55446295	      3.05126375	     -3.70483704	      2.66948126	     -9.42738119	    -11.60733978	     15.63958912	     79.26177923	     19.31578510	    -12.03177842	      2.52659535	     39.39145829	     74.52153234
      0.15000000	     -1.21631529	      0.54807095	      0.55432316	      0.71268237	      1.02100307	      0.85989774	     24.34249635	     -1.89098283	     -4.09528769	     11.00841406	      0.19213307	      0.17714228	     -1.68457567	     -6.98680774	     -6.82632065	     -0.68040111	     -5.23056755	     18.85623118	      0.32910332	     19.46224433	      1.38824147	     -6.98680774	    -11.99756036	      3.90549745	     -3.60304260	      2.95034035	     -9.97438326	    -10.04434991	     14.72537838	     78.82581866	     17.84518036	    -11.45865117	      1.12229288	     39.42033859	     73.39258672
      0.16666670	     -2.07634424	     -0.31221103	      0.17711233	      0.71818462	      1.01560562	      0.86129735	     24.96820335	     -0.79717253	     -4.38780520	     12.44474098	      0.21720170	     -1.04959193	     -2.73022751	     -7.03702698	     -6.51337894	     -1.67390155	     -5.79911939	     20.85210571	      0.36393790	     17.92341540	      1.33449683	     -7.03702698	    -10.20239047	      5.06255877	     -3.42539460	      3.02196102	    -10.56026858	     -8.74769787	     13.85378730	     78.60689176	     16.26340688	    -10.72109463	     -0.38309885	     39.37071378	     72.67854187
